<?xml version="1.0" encoding="UTF-8"?>
<!DOCTYPE score-partwise PUBLIC "-//Recordare//DTD MusicXML 3.1 Partwise//EN"
  "http://www.musicxml.org/dtds/partwise.dtd">
<!--
  Mysoloband Smoke Test — a comprehensive test piece that exercises nearly every
  notation feature the scorelib engine handles:

    ✓ Pickup (anacrusis) measure
    ✓ Key signatures: C major (0), G major (1♯), E♭ major (3♭), D major (2♯), D♭ major (5♭)
    ✓ Time signatures: 4/4, 3/4, 6/8, 5/4
    ✓ Tempos: 120, 96, 108, 132, 180 BPM
    ✓ Note values: whole, half, quarter, eighth, sixteenth, dotted
    ✓ Ties (same-pitch pairs + across barlines)
    ✓ Slurs (different-pitch legato)
    ✓ Triplets (tuplets)
    ✓ Grace notes
    ✓ Articulations: staccato, accent, fermata
    ✓ Dynamics: pp, p, mf, f, ff
    ✓ Repeat with 1st/2nd endings (voltas)
    ✓ D.S. al Fine (segno + fine + dal segno)
    ✓ Chord symbols: major, minor, dominant 7th, diminished, augmented
    ✓ Rests
    ✓ Chromatic passage with accidentals (♯, ♭)
    ✓ Wide interval leaps (2+ octaves)
    ✓ Lyrics
    ✓ Multiple octave range (E3 – A5)

    ✓ Extended waltz section (~3 pages, Chopin-style D♭ major)

  Playback order (76 unrolled measures from 70 raw):
    Section A:  m0–m9                        (4/4, C major, 120 BPM — slur + beam tests)
    Section B:  m10 m11 m12 | m10 m11 m13  (3/4, G major, 96 BPM — repeat)
    Section C:  m14–m17                      (6/8, E♭ major, 108 BPM — segno/fine)
    Section D:  m18–m20                      (5/4, D major, 132 BPM)
    Section F:  m21–m68                      (3/4, D♭ major, 180 BPM — waltz)
    Section E:  m69                          (4/4, C major, 120 BPM — D.S. al Fine)
    D.S. replay: m14–m17                    (back to segno, stop at fine)
-->
<score-partwise version="3.1">
  <work>
    <work-title>Mysoloband Smoke Test</work-title>
  </work>
  <identification>
    <creator type="composer">Auto-generated Test Piece</creator>
    <encoding>
      <encoding-date>2026-02-16</encoding-date>
      <software>SoloBand Ultra</software>
    </encoding>
  </identification>
  <credit>
    <credit-type>title</credit-type>
    <credit-words>Mysoloband Smoke Test</credit-words>
  </credit>
  <credit>
    <credit-type>composer</credit-type>
    <credit-words>Auto-generated Test Piece</credit-words>
  </credit>
  <part-list>
    <score-part id="P1">
      <part-name>Piano</part-name>
      <part-abbreviation>Pno.</part-abbreviation>
      <midi-instrument id="P1-I1">
        <midi-channel>1</midi-channel>
        <midi-program>1</midi-program>
      </midi-instrument>
    </score-part>
  </part-list>

  <part id="P1">

    <!-- ════════════════════════════════════════════════════════════════
         SECTION A: 4/4, C major, 120 BPM
         Features: pickup, basic rhythms, dots, ties, 16ths, triplets,
                   grace notes, dynamics, articulations, chord symbols
         ════════════════════════════════════════════════════════════════ -->

    <!-- Measure 0: Pickup / anacrusis — two eighth notes -->
    <measure number="0" implicit="yes">
      <attributes>
        <divisions>12</divisions>
        <key><fifths>0</fifths></key>
        <time><beats>4</beats><beat-type>4</beat-type></time>
        <clef><sign>G</sign><line>2</line></clef>
      </attributes>
      <direction placement="above">
        <direction-type>
          <metronome>
            <beat-unit>quarter</beat-unit>
            <per-minute>120</per-minute>
          </metronome>
        </direction-type>
        <sound tempo="120"/>
      </direction>
      <note>
        <pitch><step>C</step><octave>4</octave></pitch>
        <duration>6</duration><type>eighth</type>
        <beam number="1">begin</beam>
      </note>
      <note>
        <pitch><step>D</step><octave>4</octave></pitch>
        <duration>6</duration><type>eighth</type>
        <beam number="1">end</beam>
      </note>
    </measure>

    <!-- Measure 1: Quarter notes, C major harmony, mf dynamics -->
    <measure number="1">
      <harmony>
        <root><root-step>C</root-step></root>
        <kind>major</kind>
      </harmony>
      <direction placement="below">
        <direction-type><dynamics><mf/></dynamics></direction-type>
      </direction>
      <note>
        <pitch><step>E</step><octave>4</octave></pitch>
        <duration>12</duration><type>quarter</type>
      </note>
      <note>
        <pitch><step>F</step><octave>4</octave></pitch>
        <duration>12</duration><type>quarter</type>
      </note>
      <note>
        <pitch><step>G</step><octave>4</octave></pitch>
        <duration>12</duration><type>quarter</type>
      </note>
      <note>
        <pitch><step>A</step><octave>4</octave></pitch>
        <duration>12</duration><type>quarter</type>
      </note>
    </measure>

    <!-- Measure 2: Dotted quarter + eighth + half (tied), F major -->
    <measure number="2">
      <harmony>
        <root><root-step>F</root-step></root>
        <kind>major</kind>
      </harmony>
      <note>
        <pitch><step>E</step><octave>5</octave></pitch>
        <duration>18</duration><type>quarter</type><dot/>
      </note>
      <note>
        <pitch><step>D</step><octave>5</octave></pitch>
        <duration>6</duration><type>eighth</type>
      </note>
      <note>
        <pitch><step>C</step><octave>5</octave></pitch>
        <duration>24</duration><type>half</type>
        <tie type="start"/>
        <notations><tied type="start"/></notations>
      </note>
    </measure>

    <!-- Measure 3: Tie end, 16th notes with staccato, accent, G7 -->
    <measure number="3">
      <harmony>
        <root><root-step>G</root-step></root>
        <kind>dominant</kind>
      </harmony>
      <note>
        <pitch><step>C</step><octave>5</octave></pitch>
        <duration>12</duration><type>quarter</type>
        <tie type="stop"/>
        <notations><tied type="stop"/></notations>
      </note>
      <note>
        <pitch><step>B</step><octave>4</octave></pitch>
        <duration>3</duration><type>16th</type>
        <beam number="1">begin</beam><beam number="2">begin</beam>
        <notations><articulations><staccato/></articulations></notations>
      </note>
      <note>
        <pitch><step>A</step><octave>4</octave></pitch>
        <duration>3</duration><type>16th</type>
        <beam number="1">continue</beam><beam number="2">continue</beam>
        <notations><articulations><staccato/></articulations></notations>
      </note>
      <note>
        <pitch><step>G</step><octave>4</octave></pitch>
        <duration>3</duration><type>16th</type>
        <beam number="1">continue</beam><beam number="2">continue</beam>
        <notations><articulations><staccato/></articulations></notations>
      </note>
      <note>
        <pitch><step>F</step><octave>4</octave></pitch>
        <duration>3</duration><type>16th</type>
        <beam number="1">end</beam><beam number="2">end</beam>
        <notations><articulations><staccato/></articulations></notations>
      </note>
      <note>
        <pitch><step>E</step><octave>4</octave></pitch>
        <duration>12</duration><type>quarter</type>
        <notations><articulations><accent/></articulations></notations>
      </note>
      <note>
        <pitch><step>D</step><octave>4</octave></pitch>
        <duration>12</duration><type>quarter</type>
      </note>
    </measure>

    <!-- Measure 4: Triplet with slur, quarter rest, Am, forte -->
    <measure number="4">
      <harmony>
        <root><root-step>A</root-step></root>
        <kind>minor</kind>
      </harmony>
      <direction placement="below">
        <direction-type><dynamics><f/></dynamics></direction-type>
      </direction>
      <note>
        <pitch><step>C</step><octave>5</octave></pitch>
        <duration>8</duration><type>quarter</type>
        <time-modification>
          <actual-notes>3</actual-notes><normal-notes>2</normal-notes>
        </time-modification>
        <notations>
          <tuplet type="start"/>
          <slur type="start" number="1"/>
        </notations>
      </note>
      <note>
        <pitch><step>D</step><octave>5</octave></pitch>
        <duration>8</duration><type>quarter</type>
        <time-modification>
          <actual-notes>3</actual-notes><normal-notes>2</normal-notes>
        </time-modification>
      </note>
      <note>
        <pitch><step>E</step><octave>5</octave></pitch>
        <duration>8</duration><type>quarter</type>
        <time-modification>
          <actual-notes>3</actual-notes><normal-notes>2</normal-notes>
        </time-modification>
        <notations>
          <tuplet type="stop"/>
          <slur type="stop" number="1"/>
        </notations>
      </note>
      <note>
        <rest/><duration>12</duration><type>quarter</type>
      </note>
      <note>
        <pitch><step>G</step><octave>4</octave></pitch>
        <duration>12</duration><type>quarter</type>
      </note>
    </measure>

    <!-- Measure 5: Grace note + half + quarter + fermata, Dm -->
    <measure number="5">
      <harmony>
        <root><root-step>D</root-step></root>
        <kind>minor</kind>
      </harmony>
      <note>
        <grace/>
        <pitch><step>F</step><octave>5</octave></pitch>
        <type>eighth</type>
      </note>
      <note>
        <pitch><step>E</step><octave>5</octave></pitch>
        <duration>24</duration><type>half</type>
      </note>
      <note>
        <pitch><step>D</step><octave>5</octave></pitch>
        <duration>12</duration><type>quarter</type>
      </note>
      <note>
        <pitch><step>C</step><octave>5</octave></pitch>
        <duration>12</duration><type>quarter</type>
        <notations><fermata/></notations>
      </note>
    </measure>

    <!-- Measure 6: Quarter-note same-pitch pairs WITHOUT slurs -->
    <measure number="6">
      <harmony>
        <root><root-step>A</root-step></root>
        <kind>minor</kind>
      </harmony>
      <note>
        <pitch><step>A</step><octave>4</octave></pitch>
        <duration>12</duration><type>quarter</type>
      </note>
      <note>
        <pitch><step>A</step><octave>4</octave></pitch>
        <duration>12</duration><type>quarter</type>
      </note>
      <note>
        <pitch><step>D</step><octave>4</octave></pitch>
        <duration>12</duration><type>quarter</type>
      </note>
      <note>
        <pitch><step>D</step><octave>4</octave></pitch>
        <duration>12</duration><type>quarter</type>
      </note>
    </measure>

    <!-- Measure 7: Quarter-note same-pitch pairs WITH ties (merged sound) -->
    <measure number="7">
      <harmony>
        <root><root-step>A</root-step></root>
        <kind>minor</kind>
      </harmony>
      <note>
        <pitch><step>A</step><octave>4</octave></pitch>
        <duration>12</duration><type>quarter</type>
        <tie type="start"/>
        <notations><tied type="start"/></notations>
      </note>
      <note>
        <pitch><step>A</step><octave>4</octave></pitch>
        <duration>12</duration><type>quarter</type>
        <tie type="stop"/>
        <notations><tied type="stop"/></notations>
      </note>
      <note>
        <pitch><step>D</step><octave>4</octave></pitch>
        <duration>12</duration><type>quarter</type>
        <tie type="start"/>
        <notations><tied type="start"/></notations>
      </note>
      <note>
        <pitch><step>D</step><octave>4</octave></pitch>
        <duration>12</duration><type>quarter</type>
        <tie type="stop"/>
        <notations><tied type="stop"/></notations>
      </note>
    </measure>

    <!-- Measure 8: Beamed eighth-note pairs WITHOUT slurs -->
    <measure number="8">
      <harmony>
        <root><root-step>A</root-step></root>
        <kind>minor</kind>
      </harmony>
      <note>
        <pitch><step>A</step><octave>4</octave></pitch>
        <duration>6</duration><type>eighth</type>
        <beam number="1">begin</beam>
      </note>
      <note>
        <pitch><step>A</step><octave>4</octave></pitch>
        <duration>6</duration><type>eighth</type>
        <beam number="1">end</beam>
      </note>
      <note>
        <pitch><step>D</step><octave>4</octave></pitch>
        <duration>6</duration><type>eighth</type>
        <beam number="1">begin</beam>
      </note>
      <note>
        <pitch><step>D</step><octave>4</octave></pitch>
        <duration>6</duration><type>eighth</type>
        <beam number="1">end</beam>
      </note>
      <note>
        <pitch><step>A</step><octave>4</octave></pitch>
        <duration>6</duration><type>eighth</type>
        <beam number="1">begin</beam>
      </note>
      <note>
        <pitch><step>A</step><octave>4</octave></pitch>
        <duration>6</duration><type>eighth</type>
        <beam number="1">end</beam>
      </note>
      <note>
        <pitch><step>D</step><octave>4</octave></pitch>
        <duration>6</duration><type>eighth</type>
        <beam number="1">begin</beam>
      </note>
      <note>
        <pitch><step>D</step><octave>4</octave></pitch>
        <duration>6</duration><type>eighth</type>
        <beam number="1">end</beam>
      </note>
    </measure>

    <!-- Measure 9: Beamed eighth-note pairs WITH ties (merged sound) -->
    <measure number="9">
      <harmony>
        <root><root-step>A</root-step></root>
        <kind>minor</kind>
      </harmony>
      <note>
        <pitch><step>A</step><octave>4</octave></pitch>
        <duration>6</duration><type>eighth</type>
        <tie type="start"/>
        <beam number="1">begin</beam>
        <notations><tied type="start"/></notations>
      </note>
      <note>
        <pitch><step>A</step><octave>4</octave></pitch>
        <duration>6</duration><type>eighth</type>
        <tie type="stop"/>
        <beam number="1">end</beam>
        <notations><tied type="stop"/></notations>
      </note>
      <note>
        <pitch><step>D</step><octave>4</octave></pitch>
        <duration>6</duration><type>eighth</type>
        <tie type="start"/>
        <beam number="1">begin</beam>
        <notations><tied type="start"/></notations>
      </note>
      <note>
        <pitch><step>D</step><octave>4</octave></pitch>
        <duration>6</duration><type>eighth</type>
        <tie type="stop"/>
        <beam number="1">end</beam>
        <notations><tied type="stop"/></notations>
      </note>
      <note>
        <pitch><step>A</step><octave>4</octave></pitch>
        <duration>6</duration><type>eighth</type>
        <tie type="start"/>
        <beam number="1">begin</beam>
        <notations><tied type="start"/></notations>
      </note>
      <note>
        <pitch><step>A</step><octave>4</octave></pitch>
        <duration>6</duration><type>eighth</type>
        <tie type="stop"/>
        <beam number="1">end</beam>
        <notations><tied type="stop"/></notations>
      </note>
      <note>
        <pitch><step>D</step><octave>4</octave></pitch>
        <duration>6</duration><type>eighth</type>
        <tie type="start"/>
        <beam number="1">begin</beam>
        <notations><tied type="start"/></notations>
      </note>
      <note>
        <pitch><step>D</step><octave>4</octave></pitch>
        <duration>6</duration><type>eighth</type>
        <tie type="stop"/>
        <beam number="1">end</beam>
        <notations><tied type="stop"/></notations>
      </note>
    </measure>

    <!-- ════════════════════════════════════════════════════════════════
         SECTION B: 3/4, G major, 96 BPM
         Features: key/time/tempo change, repeat with 1st/2nd endings,
                   dotted rhythms, slurs
         ════════════════════════════════════════════════════════════════ -->

    <!-- Measure 10: Key→G, Time→3/4, Tempo→96, repeat start, piano -->
    <measure number="10">
      <attributes>
        <key><fifths>1</fifths></key>
        <time><beats>3</beats><beat-type>4</beat-type></time>
      </attributes>
      <direction placement="above">
        <direction-type>
          <metronome>
            <beat-unit>quarter</beat-unit>
            <per-minute>96</per-minute>
          </metronome>
        </direction-type>
        <sound tempo="96"/>
      </direction>
      <direction placement="below">
        <direction-type><dynamics><p/></dynamics></direction-type>
      </direction>
      <barline location="left">
        <bar-style>heavy-light</bar-style>
        <repeat direction="forward"/>
      </barline>
      <harmony>
        <root><root-step>G</root-step></root>
        <kind>major</kind>
      </harmony>
      <note>
        <pitch><step>G</step><octave>4</octave></pitch>
        <duration>12</duration><type>quarter</type>
      </note>
      <note>
        <pitch><step>B</step><octave>4</octave></pitch>
        <duration>12</duration><type>quarter</type>
      </note>
      <note>
        <pitch><step>D</step><octave>5</octave></pitch>
        <duration>12</duration><type>quarter</type>
      </note>
    </measure>

    <!-- Measure 11: Dotted quarter + eighth + quarter, slur, Em -->
    <measure number="11">
      <harmony>
        <root><root-step>E</root-step></root>
        <kind>minor</kind>
      </harmony>
      <note>
        <pitch><step>E</step><octave>5</octave></pitch>
        <duration>18</duration><type>quarter</type><dot/>
        <notations><slur type="start" number="1"/></notations>
      </note>
      <note>
        <pitch><step>D</step><octave>5</octave></pitch>
        <duration>6</duration><type>eighth</type>
      </note>
      <note>
        <pitch><step>B</step><octave>4</octave></pitch>
        <duration>12</duration><type>quarter</type>
        <notations><slur type="stop" number="1"/></notations>
      </note>
    </measure>

    <!-- Measure 12: 1st ending, D7, repeat backward -->
    <measure number="12">
      <barline location="left">
        <ending number="1" type="start"/>
      </barline>
      <harmony>
        <root><root-step>D</root-step></root>
        <kind>dominant</kind>
      </harmony>
      <note>
        <pitch><step>D</step><octave>5</octave></pitch>
        <duration>24</duration><type>half</type>
      </note>
      <note>
        <pitch><step>C</step><octave>5</octave></pitch>
        <duration>12</duration><type>quarter</type>
      </note>
      <barline location="right">
        <ending number="1" type="stop"/>
        <repeat direction="backward"/>
      </barline>
    </measure>

    <!-- Measure 13: 2nd ending, C major, dotted half -->
    <measure number="13">
      <barline location="left">
        <ending number="2" type="start"/>
      </barline>
      <harmony>
        <root><root-step>C</root-step></root>
        <kind>major</kind>
      </harmony>
      <note>
        <pitch><step>C</step><octave>5</octave></pitch>
        <duration>36</duration><type>half</type><dot/>
      </note>
      <barline location="right">
        <ending number="2" type="discontinue"/>
      </barline>
    </measure>

    <!-- ════════════════════════════════════════════════════════════════
         SECTION C: 6/8, E♭ major, dotted-quarter = 72 (quarter = 108)
         Features: compound meter, segno, fine, eighth note passage,
                   fermata, pp dynamics
         ════════════════════════════════════════════════════════════════ -->

    <!-- Measure 14: Key→E♭, Time→6/8, Tempo→108, Segno, E♭ major -->
    <measure number="14">
      <attributes>
        <key><fifths>-3</fifths></key>
        <time><beats>6</beats><beat-type>8</beat-type></time>
      </attributes>
      <direction placement="above">
        <direction-type>
          <metronome>
            <beat-unit>quarter</beat-unit>
            <beat-unit-dot/>
            <per-minute>72</per-minute>
          </metronome>
        </direction-type>
        <sound tempo="108"/>
      </direction>
      <direction>
        <direction-type><segno/></direction-type>
        <sound segno="segno"/>
      </direction>
      <harmony>
        <root><root-step>E</root-step><root-alter>-1</root-alter></root>
        <kind>major</kind>
      </harmony>
      <note>
        <pitch><step>E</step><alter>-1</alter><octave>4</octave></pitch>
        <duration>18</duration><type>quarter</type><dot/>
      </note>
      <note>
        <pitch><step>G</step><octave>4</octave></pitch>
        <duration>18</duration><type>quarter</type><dot/>
      </note>
    </measure>

    <!-- Measure 15: Eighth note passage, pp, B♭7 -->
    <measure number="15">
      <direction placement="below">
        <direction-type><dynamics><pp/></dynamics></direction-type>
      </direction>
      <harmony>
        <root><root-step>B</root-step><root-alter>-1</root-alter></root>
        <kind>dominant</kind>
      </harmony>
      <note>
        <pitch><step>B</step><alter>-1</alter><octave>4</octave></pitch>
        <duration>6</duration><type>eighth</type>
        <beam number="1">begin</beam>
      </note>
      <note>
        <pitch><step>A</step><alter>-1</alter><octave>4</octave></pitch>
        <duration>6</duration><type>eighth</type>
        <beam number="1">continue</beam>
      </note>
      <note>
        <pitch><step>G</step><octave>4</octave></pitch>
        <duration>6</duration><type>eighth</type>
        <beam number="1">end</beam>
      </note>
      <note>
        <pitch><step>F</step><octave>4</octave></pitch>
        <duration>6</duration><type>eighth</type>
        <beam number="1">begin</beam>
      </note>
      <note>
        <pitch><step>E</step><alter>-1</alter><octave>4</octave></pitch>
        <duration>6</duration><type>eighth</type>
        <beam number="1">continue</beam>
      </note>
      <note>
        <pitch><step>D</step><octave>4</octave></pitch>
        <duration>6</duration><type>eighth</type>
        <beam number="1">end</beam>
      </note>
    </measure>

    <!-- Measure 16: Dotted quarters, fermata on last, Cm -->
    <measure number="16">
      <harmony>
        <root><root-step>C</root-step></root>
        <kind>minor</kind>
      </harmony>
      <note>
        <pitch><step>C</step><octave>5</octave></pitch>
        <duration>18</duration><type>quarter</type><dot/>
      </note>
      <note>
        <pitch><step>E</step><alter>-1</alter><octave>5</octave></pitch>
        <duration>18</duration><type>quarter</type><dot/>
        <notations><fermata/></notations>
      </note>
    </measure>

    <!-- Measure 17: Fine, A♭ major, mixed rhythms with rest -->
    <measure number="17">
      <direction>
        <direction-type><words>Fine</words></direction-type>
        <sound fine="yes"/>
      </direction>
      <harmony>
        <root><root-step>A</root-step><root-alter>-1</root-alter></root>
        <kind>major</kind>
      </harmony>
      <note>
        <pitch><step>A</step><alter>-1</alter><octave>4</octave></pitch>
        <duration>18</duration><type>quarter</type><dot/>
      </note>
      <note>
        <rest/><duration>6</duration><type>eighth</type>
      </note>
      <note>
        <pitch><step>E</step><alter>-1</alter><octave>4</octave></pitch>
        <duration>6</duration><type>eighth</type>
        <beam number="1">begin</beam>
      </note>
      <note>
        <pitch><step>A</step><alter>-1</alter><octave>4</octave></pitch>
        <duration>6</duration><type>eighth</type>
        <beam number="1">end</beam>
      </note>
    </measure>

    <!-- ════════════════════════════════════════════════════════════════
         SECTION D: 5/4, D major, 132 BPM
         Features: odd meter, chromatic accidentals, wide leaps,
                   lyrics, diminished/augmented chords, ff dynamics
         ════════════════════════════════════════════════════════════════ -->

    <!-- Measure 18: Key→D, Time→5/4, Tempo→132, ff, D major -->
    <measure number="18">
      <attributes>
        <key><fifths>2</fifths></key>
        <time><beats>5</beats><beat-type>4</beat-type></time>
      </attributes>
      <direction placement="above">
        <direction-type>
          <metronome>
            <beat-unit>quarter</beat-unit>
            <per-minute>132</per-minute>
          </metronome>
        </direction-type>
        <sound tempo="132"/>
      </direction>
      <direction placement="below">
        <direction-type><dynamics><ff/></dynamics></direction-type>
      </direction>
      <harmony>
        <root><root-step>D</root-step></root>
        <kind>major</kind>
      </harmony>
      <note>
        <pitch><step>D</step><octave>5</octave></pitch>
        <duration>24</duration><type>half</type>
      </note>
      <note>
        <pitch><step>F</step><alter>1</alter><octave>5</octave></pitch>
        <duration>12</duration><type>quarter</type>
      </note>
      <note>
        <pitch><step>A</step><octave>5</octave></pitch>
        <duration>12</duration><type>quarter</type>
      </note>
      <note>
        <pitch><step>D</step><octave>5</octave></pitch>
        <duration>12</duration><type>quarter</type>
      </note>
    </measure>

    <!-- Measure 19: Chromatic passage with lyrics, B diminished -->
    <measure number="19">
      <harmony>
        <root><root-step>B</root-step></root>
        <kind>diminished</kind>
      </harmony>
      <note>
        <pitch><step>B</step><octave>4</octave></pitch>
        <duration>6</duration><type>eighth</type>
        <beam number="1">begin</beam>
        <lyric number="1"><syllabic>begin</syllabic><text>Chro</text></lyric>
      </note>
      <note>
        <pitch><step>C</step><octave>5</octave></pitch>
        <duration>6</duration><type>eighth</type>
        <beam number="1">end</beam>
        <lyric number="1"><syllabic>middle</syllabic><text>ma</text></lyric>
      </note>
      <note>
        <pitch><step>C</step><alter>1</alter><octave>5</octave></pitch>
        <duration>6</duration><type>eighth</type>
        <beam number="1">begin</beam>
        <lyric number="1"><syllabic>end</syllabic><text>tic</text></lyric>
      </note>
      <note>
        <pitch><step>D</step><octave>5</octave></pitch>
        <duration>6</duration><type>eighth</type>
        <beam number="1">end</beam>
        <lyric number="1"><syllabic>single</syllabic><text>scale</text></lyric>
      </note>
      <note>
        <pitch><step>E</step><alter>-1</alter><octave>5</octave></pitch>
        <duration>6</duration><type>eighth</type>
        <beam number="1">begin</beam>
        <lyric number="1"><syllabic>single</syllabic><text>goes</text></lyric>
      </note>
      <note>
        <pitch><step>E</step><octave>5</octave></pitch>
        <duration>6</duration><type>eighth</type>
        <beam number="1">end</beam>
        <lyric number="1"><syllabic>single</syllabic><text>up</text></lyric>
      </note>
      <note>
        <pitch><step>F</step><octave>5</octave></pitch>
        <duration>12</duration><type>quarter</type>
      </note>
      <note>
        <rest/><duration>12</duration><type>quarter</type>
      </note>
    </measure>

    <!-- Measure 20: Wide leaps (E3→E5), E augmented -->
    <measure number="20">
      <harmony>
        <root><root-step>E</root-step></root>
        <kind>augmented</kind>
      </harmony>
      <note>
        <pitch><step>E</step><octave>3</octave></pitch>
        <duration>12</duration><type>quarter</type>
      </note>
      <note>
        <pitch><step>E</step><octave>5</octave></pitch>
        <duration>12</duration><type>quarter</type>
      </note>
      <note>
        <pitch><step>G</step><alter>1</alter><octave>4</octave></pitch>
        <duration>24</duration><type>half</type>
      </note>
      <note>
        <pitch><step>B</step><octave>4</octave></pitch>
        <duration>12</duration><type>quarter</type>
      </note>
    </measure>

    <!-- ════════════════════════════════════════════════════════════════
         SECTION F: 3/4, D♭ major, 180 BPM — Chopin-style fast waltz
         48 measures of flowing waltz melody to fill ~3 pages and test
         score scrolling / page turning during playback.
         ════════════════════════════════════════════════════════════════ -->

    <!-- Measure 21: Key→D♭ major, Time→3/4, Tempo→180 (fast waltz) -->
    <measure number="21">
      <attributes>
        <key><fifths>-5</fifths></key>
        <time><beats>3</beats><beat-type>4</beat-type></time>
      </attributes>
      <direction placement="above">
        <direction-type>
          <metronome><beat-unit>quarter</beat-unit><per-minute>180</per-minute></metronome>
        </direction-type>
        <sound tempo="180"/>
      </direction>
      <direction placement="below">
        <direction-type><dynamics><mf/></dynamics></direction-type>
      </direction>
      <harmony><root><root-step>D</root-step><root-alter>-1</root-alter></root><kind>major</kind></harmony>
      <note><pitch><step>D</step><alter>-1</alter><octave>5</octave></pitch><duration>36</duration><type>half</type><dot/></note>
    </measure>

    <!-- Phrase 1: Lyrical waltz theme (m22–m28) -->
    <measure number="22">
      <harmony><root><root-step>A</root-step><root-alter>-1</root-alter></root><kind>major</kind></harmony>
      <note><pitch><step>A</step><alter>-1</alter><octave>4</octave></pitch><duration>12</duration><type>quarter</type></note>
      <note><pitch><step>B</step><alter>-1</alter><octave>4</octave></pitch><duration>12</duration><type>quarter</type></note>
      <note><pitch><step>C</step><octave>5</octave></pitch><duration>12</duration><type>quarter</type></note>
    </measure>
    <measure number="23">
      <harmony><root><root-step>D</root-step><root-alter>-1</root-alter></root><kind>major</kind></harmony>
      <note><pitch><step>D</step><alter>-1</alter><octave>5</octave></pitch><duration>18</duration><type>quarter</type><dot/></note>
      <note><pitch><step>C</step><octave>5</octave></pitch><duration>6</duration><type>eighth</type></note>
      <note><pitch><step>B</step><alter>-1</alter><octave>4</octave></pitch><duration>12</duration><type>quarter</type></note>
    </measure>
    <measure number="24">
      <harmony><root><root-step>G</root-step><root-alter>-1</root-alter></root><kind>major</kind></harmony>
      <note><pitch><step>G</step><alter>-1</alter><octave>4</octave></pitch><duration>12</duration><type>quarter</type></note>
      <note><pitch><step>A</step><alter>-1</alter><octave>4</octave></pitch><duration>12</duration><type>quarter</type></note>
      <note><pitch><step>B</step><alter>-1</alter><octave>4</octave></pitch><duration>12</duration><type>quarter</type></note>
    </measure>
    <measure number="25">
      <harmony><root><root-step>A</root-step><root-alter>-1</root-alter></root><kind>dominant</kind></harmony>
      <note><pitch><step>A</step><alter>-1</alter><octave>4</octave></pitch><duration>18</duration><type>quarter</type><dot/></note>
      <note><pitch><step>B</step><alter>-1</alter><octave>4</octave></pitch><duration>6</duration><type>eighth</type></note>
      <note><pitch><step>C</step><octave>5</octave></pitch><duration>12</duration><type>quarter</type></note>
    </measure>
    <measure number="26">
      <harmony><root><root-step>D</root-step><root-alter>-1</root-alter></root><kind>major</kind></harmony>
      <note><pitch><step>D</step><alter>-1</alter><octave>5</octave></pitch><duration>12</duration><type>quarter</type></note>
      <note><pitch><step>E</step><alter>-1</alter><octave>5</octave></pitch><duration>12</duration><type>quarter</type></note>
      <note><pitch><step>F</step><octave>5</octave></pitch><duration>12</duration><type>quarter</type></note>
    </measure>
    <measure number="27">
      <harmony><root><root-step>B</root-step><root-alter>-1</root-alter></root><kind>minor</kind></harmony>
      <note><pitch><step>F</step><octave>5</octave></pitch><duration>18</duration><type>quarter</type><dot/></note>
      <note><pitch><step>E</step><alter>-1</alter><octave>5</octave></pitch><duration>6</duration><type>eighth</type></note>
      <note><pitch><step>D</step><alter>-1</alter><octave>5</octave></pitch><duration>12</duration><type>quarter</type></note>
    </measure>
    <measure number="28">
      <harmony><root><root-step>A</root-step><root-alter>-1</root-alter></root><kind>dominant</kind></harmony>
      <note><pitch><step>C</step><octave>5</octave></pitch><duration>12</duration><type>quarter</type></note>
      <note><pitch><step>B</step><alter>-1</alter><octave>4</octave></pitch><duration>12</duration><type>quarter</type></note>
      <note><pitch><step>A</step><alter>-1</alter><octave>4</octave></pitch><duration>12</duration><type>quarter</type></note>
    </measure>

    <!-- Phrase 2: Theme variation with eighth-note runs (m29–m36) -->
    <measure number="29">
      <harmony><root><root-step>D</root-step><root-alter>-1</root-alter></root><kind>major</kind></harmony>
      <note><pitch><step>D</step><alter>-1</alter><octave>5</octave></pitch><duration>6</duration><type>eighth</type>
        <beam number="1">begin</beam></note>
      <note><pitch><step>C</step><octave>5</octave></pitch><duration>6</duration><type>eighth</type>
        <beam number="1">end</beam></note>
      <note><pitch><step>D</step><alter>-1</alter><octave>5</octave></pitch><duration>6</duration><type>eighth</type>
        <beam number="1">begin</beam></note>
      <note><pitch><step>E</step><alter>-1</alter><octave>5</octave></pitch><duration>6</duration><type>eighth</type>
        <beam number="1">end</beam></note>
      <note><pitch><step>F</step><octave>5</octave></pitch><duration>12</duration><type>quarter</type></note>
    </measure>
    <measure number="30">
      <harmony><root><root-step>G</root-step><root-alter>-1</root-alter></root><kind>major</kind></harmony>
      <note><pitch><step>G</step><alter>-1</alter><octave>5</octave></pitch><duration>12</duration><type>quarter</type></note>
      <note><pitch><step>F</step><octave>5</octave></pitch><duration>6</duration><type>eighth</type>
        <beam number="1">begin</beam></note>
      <note><pitch><step>E</step><alter>-1</alter><octave>5</octave></pitch><duration>6</duration><type>eighth</type>
        <beam number="1">end</beam></note>
      <note><pitch><step>D</step><alter>-1</alter><octave>5</octave></pitch><duration>12</duration><type>quarter</type></note>
    </measure>
    <measure number="31">
      <harmony><root><root-step>A</root-step><root-alter>-1</root-alter></root><kind>dominant</kind></harmony>
      <note><pitch><step>A</step><alter>-1</alter><octave>4</octave></pitch><duration>12</duration><type>quarter</type></note>
      <note><pitch><step>C</step><octave>5</octave></pitch><duration>12</duration><type>quarter</type></note>
      <note><pitch><step>E</step><alter>-1</alter><octave>5</octave></pitch><duration>12</duration><type>quarter</type></note>
    </measure>
    <measure number="32">
      <harmony><root><root-step>D</root-step><root-alter>-1</root-alter></root><kind>major</kind></harmony>
      <note><pitch><step>D</step><alter>-1</alter><octave>5</octave></pitch><duration>36</duration><type>half</type><dot/></note>
    </measure>
    <measure number="33">
      <harmony><root><root-step>D</root-step><root-alter>-1</root-alter></root><kind>major</kind></harmony>
      <note><pitch><step>F</step><octave>5</octave></pitch><duration>6</duration><type>eighth</type>
        <beam number="1">begin</beam></note>
      <note><pitch><step>E</step><alter>-1</alter><octave>5</octave></pitch><duration>6</duration><type>eighth</type>
        <beam number="1">end</beam></note>
      <note><pitch><step>D</step><alter>-1</alter><octave>5</octave></pitch><duration>6</duration><type>eighth</type>
        <beam number="1">begin</beam></note>
      <note><pitch><step>C</step><octave>5</octave></pitch><duration>6</duration><type>eighth</type>
        <beam number="1">end</beam></note>
      <note><pitch><step>B</step><alter>-1</alter><octave>4</octave></pitch><duration>12</duration><type>quarter</type></note>
    </measure>
    <measure number="34">
      <harmony><root><root-step>E</root-step><root-alter>-1</root-alter></root><kind>minor</kind></harmony>
      <note><pitch><step>E</step><alter>-1</alter><octave>5</octave></pitch><duration>12</duration><type>quarter</type></note>
      <note><pitch><step>D</step><alter>-1</alter><octave>5</octave></pitch><duration>6</duration><type>eighth</type>
        <beam number="1">begin</beam></note>
      <note><pitch><step>C</step><octave>5</octave></pitch><duration>6</duration><type>eighth</type>
        <beam number="1">end</beam></note>
      <note><pitch><step>B</step><alter>-1</alter><octave>4</octave></pitch><duration>12</duration><type>quarter</type></note>
    </measure>
    <measure number="35">
      <harmony><root><root-step>A</root-step><root-alter>-1</root-alter></root><kind>dominant</kind></harmony>
      <note><pitch><step>A</step><alter>-1</alter><octave>4</octave></pitch><duration>18</duration><type>quarter</type><dot/></note>
      <note><pitch><step>B</step><alter>-1</alter><octave>4</octave></pitch><duration>6</duration><type>eighth</type></note>
      <note><pitch><step>C</step><octave>5</octave></pitch><duration>12</duration><type>quarter</type></note>
    </measure>
    <measure number="36">
      <harmony><root><root-step>D</root-step><root-alter>-1</root-alter></root><kind>major</kind></harmony>
      <note><pitch><step>D</step><alter>-1</alter><octave>5</octave></pitch><duration>36</duration><type>half</type><dot/></note>
    </measure>

    <!-- Phrase 3: Contrasting B♭ minor section (m37–m44) -->
    <measure number="37">
      <harmony><root><root-step>B</root-step><root-alter>-1</root-alter></root><kind>minor</kind></harmony>
      <note><pitch><step>B</step><alter>-1</alter><octave>4</octave></pitch><duration>36</duration><type>half</type><dot/></note>
    </measure>
    <measure number="38">
      <harmony><root><root-step>F</root-step></root><kind>major</kind></harmony>
      <note><pitch><step>F</step><octave>5</octave></pitch><duration>12</duration><type>quarter</type></note>
      <note><pitch><step>E</step><alter>-1</alter><octave>5</octave></pitch><duration>12</duration><type>quarter</type></note>
      <note><pitch><step>D</step><alter>-1</alter><octave>5</octave></pitch><duration>12</duration><type>quarter</type></note>
    </measure>
    <measure number="39">
      <harmony><root><root-step>B</root-step><root-alter>-1</root-alter></root><kind>minor</kind></harmony>
      <note><pitch><step>D</step><alter>-1</alter><octave>5</octave></pitch><duration>6</duration><type>eighth</type>
        <beam number="1">begin</beam></note>
      <note><pitch><step>C</step><octave>5</octave></pitch><duration>6</duration><type>eighth</type>
        <beam number="1">end</beam></note>
      <note><pitch><step>B</step><alter>-1</alter><octave>4</octave></pitch><duration>6</duration><type>eighth</type>
        <beam number="1">begin</beam></note>
      <note><pitch><step>A</step><alter>-1</alter><octave>4</octave></pitch><duration>6</duration><type>eighth</type>
        <beam number="1">end</beam></note>
      <note><pitch><step>B</step><alter>-1</alter><octave>4</octave></pitch><duration>12</duration><type>quarter</type></note>
    </measure>
    <measure number="40">
      <harmony><root><root-step>G</root-step><root-alter>-1</root-alter></root><kind>major</kind></harmony>
      <note><pitch><step>G</step><alter>-1</alter><octave>4</octave></pitch><duration>12</duration><type>quarter</type></note>
      <note><pitch><step>B</step><alter>-1</alter><octave>4</octave></pitch><duration>12</duration><type>quarter</type></note>
      <note><pitch><step>D</step><alter>-1</alter><octave>5</octave></pitch><duration>12</duration><type>quarter</type></note>
    </measure>
    <measure number="41">
      <harmony><root><root-step>B</root-step><root-alter>-1</root-alter></root><kind>minor</kind></harmony>
      <note><pitch><step>F</step><octave>5</octave></pitch><duration>18</duration><type>quarter</type><dot/></note>
      <note><pitch><step>E</step><alter>-1</alter><octave>5</octave></pitch><duration>6</duration><type>eighth</type></note>
      <note><pitch><step>D</step><alter>-1</alter><octave>5</octave></pitch><duration>12</duration><type>quarter</type></note>
    </measure>
    <measure number="42">
      <harmony><root><root-step>E</root-step><root-alter>-1</root-alter></root><kind>minor</kind></harmony>
      <note><pitch><step>E</step><alter>-1</alter><octave>5</octave></pitch><duration>12</duration><type>quarter</type></note>
      <note><pitch><step>D</step><alter>-1</alter><octave>5</octave></pitch><duration>12</duration><type>quarter</type></note>
      <note><pitch><step>B</step><alter>-1</alter><octave>4</octave></pitch><duration>12</duration><type>quarter</type></note>
    </measure>
    <measure number="43">
      <harmony><root><root-step>F</root-step></root><kind>dominant</kind></harmony>
      <note><pitch><step>F</step><octave>5</octave></pitch><duration>12</duration><type>quarter</type></note>
      <note><pitch><step>E</step><alter>-1</alter><octave>5</octave></pitch><duration>6</duration><type>eighth</type>
        <beam number="1">begin</beam></note>
      <note><pitch><step>D</step><alter>-1</alter><octave>5</octave></pitch><duration>6</duration><type>eighth</type>
        <beam number="1">end</beam></note>
      <note><pitch><step>C</step><octave>5</octave></pitch><duration>12</duration><type>quarter</type></note>
    </measure>
    <measure number="44">
      <harmony><root><root-step>B</root-step><root-alter>-1</root-alter></root><kind>minor</kind></harmony>
      <note><pitch><step>B</step><alter>-1</alter><octave>4</octave></pitch><duration>36</duration><type>half</type><dot/></note>
    </measure>

    <!-- Phrase 4: Running eighth-note arpeggios (m45–m52) -->
    <measure number="45">
      <harmony><root><root-step>D</root-step><root-alter>-1</root-alter></root><kind>major</kind></harmony>
      <note><pitch><step>D</step><alter>-1</alter><octave>5</octave></pitch><duration>6</duration><type>eighth</type>
        <beam number="1">begin</beam></note>
      <note><pitch><step>E</step><alter>-1</alter><octave>5</octave></pitch><duration>6</duration><type>eighth</type>
        <beam number="1">end</beam></note>
      <note><pitch><step>F</step><octave>5</octave></pitch><duration>6</duration><type>eighth</type>
        <beam number="1">begin</beam></note>
      <note><pitch><step>G</step><alter>-1</alter><octave>5</octave></pitch><duration>6</duration><type>eighth</type>
        <beam number="1">end</beam></note>
      <note><pitch><step>A</step><alter>-1</alter><octave>5</octave></pitch><duration>6</duration><type>eighth</type>
        <beam number="1">begin</beam></note>
      <note><pitch><step>B</step><alter>-1</alter><octave>5</octave></pitch><duration>6</duration><type>eighth</type>
        <beam number="1">end</beam></note>
    </measure>
    <measure number="46">
      <harmony><root><root-step>A</root-step><root-alter>-1</root-alter></root><kind>dominant</kind></harmony>
      <note><pitch><step>A</step><alter>-1</alter><octave>5</octave></pitch><duration>6</duration><type>eighth</type>
        <beam number="1">begin</beam></note>
      <note><pitch><step>G</step><alter>-1</alter><octave>5</octave></pitch><duration>6</duration><type>eighth</type>
        <beam number="1">end</beam></note>
      <note><pitch><step>F</step><octave>5</octave></pitch><duration>6</duration><type>eighth</type>
        <beam number="1">begin</beam></note>
      <note><pitch><step>E</step><alter>-1</alter><octave>5</octave></pitch><duration>6</duration><type>eighth</type>
        <beam number="1">end</beam></note>
      <note><pitch><step>D</step><alter>-1</alter><octave>5</octave></pitch><duration>6</duration><type>eighth</type>
        <beam number="1">begin</beam></note>
      <note><pitch><step>C</step><octave>5</octave></pitch><duration>6</duration><type>eighth</type>
        <beam number="1">end</beam></note>
    </measure>
    <measure number="47">
      <harmony><root><root-step>D</root-step><root-alter>-1</root-alter></root><kind>major</kind></harmony>
      <note><pitch><step>D</step><alter>-1</alter><octave>5</octave></pitch><duration>6</duration><type>eighth</type>
        <beam number="1">begin</beam></note>
      <note><pitch><step>F</step><octave>5</octave></pitch><duration>6</duration><type>eighth</type>
        <beam number="1">end</beam></note>
      <note><pitch><step>A</step><alter>-1</alter><octave>5</octave></pitch><duration>6</duration><type>eighth</type>
        <beam number="1">begin</beam></note>
      <note><pitch><step>F</step><octave>5</octave></pitch><duration>6</duration><type>eighth</type>
        <beam number="1">end</beam></note>
      <note><pitch><step>D</step><alter>-1</alter><octave>5</octave></pitch><duration>6</duration><type>eighth</type>
        <beam number="1">begin</beam></note>
      <note><pitch><step>A</step><alter>-1</alter><octave>4</octave></pitch><duration>6</duration><type>eighth</type>
        <beam number="1">end</beam></note>
    </measure>
    <measure number="48">
      <harmony><root><root-step>G</root-step><root-alter>-1</root-alter></root><kind>major</kind></harmony>
      <note><pitch><step>G</step><alter>-1</alter><octave>4</octave></pitch><duration>6</duration><type>eighth</type>
        <beam number="1">begin</beam></note>
      <note><pitch><step>B</step><alter>-1</alter><octave>4</octave></pitch><duration>6</duration><type>eighth</type>
        <beam number="1">end</beam></note>
      <note><pitch><step>D</step><alter>-1</alter><octave>5</octave></pitch><duration>6</duration><type>eighth</type>
        <beam number="1">begin</beam></note>
      <note><pitch><step>B</step><alter>-1</alter><octave>4</octave></pitch><duration>6</duration><type>eighth</type>
        <beam number="1">end</beam></note>
      <note><pitch><step>G</step><alter>-1</alter><octave>4</octave></pitch><duration>6</duration><type>eighth</type>
        <beam number="1">begin</beam></note>
      <note><pitch><step>D</step><alter>-1</alter><octave>4</octave></pitch><duration>6</duration><type>eighth</type>
        <beam number="1">end</beam></note>
    </measure>
    <measure number="49">
      <harmony><root><root-step>A</root-step><root-alter>-1</root-alter></root><kind>dominant</kind></harmony>
      <note><pitch><step>A</step><alter>-1</alter><octave>4</octave></pitch><duration>6</duration><type>eighth</type>
        <beam number="1">begin</beam></note>
      <note><pitch><step>C</step><octave>5</octave></pitch><duration>6</duration><type>eighth</type>
        <beam number="1">end</beam></note>
      <note><pitch><step>E</step><alter>-1</alter><octave>5</octave></pitch><duration>6</duration><type>eighth</type>
        <beam number="1">begin</beam></note>
      <note><pitch><step>C</step><octave>5</octave></pitch><duration>6</duration><type>eighth</type>
        <beam number="1">end</beam></note>
      <note><pitch><step>A</step><alter>-1</alter><octave>4</octave></pitch><duration>6</duration><type>eighth</type>
        <beam number="1">begin</beam></note>
      <note><pitch><step>E</step><alter>-1</alter><octave>4</octave></pitch><duration>6</duration><type>eighth</type>
        <beam number="1">end</beam></note>
    </measure>
    <measure number="50">
      <harmony><root><root-step>D</root-step><root-alter>-1</root-alter></root><kind>major</kind></harmony>
      <note><pitch><step>D</step><alter>-1</alter><octave>5</octave></pitch><duration>6</duration><type>eighth</type>
        <beam number="1">begin</beam></note>
      <note><pitch><step>E</step><alter>-1</alter><octave>5</octave></pitch><duration>6</duration><type>eighth</type>
        <beam number="1">end</beam></note>
      <note><pitch><step>F</step><octave>5</octave></pitch><duration>6</duration><type>eighth</type>
        <beam number="1">begin</beam></note>
      <note><pitch><step>A</step><alter>-1</alter><octave>5</octave></pitch><duration>6</duration><type>eighth</type>
        <beam number="1">end</beam></note>
      <note><pitch><step>F</step><octave>5</octave></pitch><duration>6</duration><type>eighth</type>
        <beam number="1">begin</beam></note>
      <note><pitch><step>D</step><alter>-1</alter><octave>5</octave></pitch><duration>6</duration><type>eighth</type>
        <beam number="1">end</beam></note>
    </measure>
    <measure number="51">
      <harmony><root><root-step>B</root-step><root-alter>-1</root-alter></root><kind>minor</kind></harmony>
      <note><pitch><step>B</step><alter>-1</alter><octave>4</octave></pitch><duration>6</duration><type>eighth</type>
        <beam number="1">begin</beam></note>
      <note><pitch><step>D</step><alter>-1</alter><octave>5</octave></pitch><duration>6</duration><type>eighth</type>
        <beam number="1">end</beam></note>
      <note><pitch><step>F</step><octave>5</octave></pitch><duration>6</duration><type>eighth</type>
        <beam number="1">begin</beam></note>
      <note><pitch><step>D</step><alter>-1</alter><octave>5</octave></pitch><duration>6</duration><type>eighth</type>
        <beam number="1">end</beam></note>
      <note><pitch><step>B</step><alter>-1</alter><octave>4</octave></pitch><duration>6</duration><type>eighth</type>
        <beam number="1">begin</beam></note>
      <note><pitch><step>F</step><octave>4</octave></pitch><duration>6</duration><type>eighth</type>
        <beam number="1">end</beam></note>
    </measure>
    <measure number="52">
      <harmony><root><root-step>A</root-step><root-alter>-1</root-alter></root><kind>dominant</kind></harmony>
      <note><pitch><step>A</step><alter>-1</alter><octave>4</octave></pitch><duration>6</duration><type>eighth</type>
        <beam number="1">begin</beam></note>
      <note><pitch><step>B</step><alter>-1</alter><octave>4</octave></pitch><duration>6</duration><type>eighth</type>
        <beam number="1">end</beam></note>
      <note><pitch><step>C</step><octave>5</octave></pitch><duration>6</duration><type>eighth</type>
        <beam number="1">begin</beam></note>
      <note><pitch><step>D</step><alter>-1</alter><octave>5</octave></pitch><duration>6</duration><type>eighth</type>
        <beam number="1">end</beam></note>
      <note><pitch><step>E</step><alter>-1</alter><octave>5</octave></pitch><duration>6</duration><type>eighth</type>
        <beam number="1">begin</beam></note>
      <note><pitch><step>F</step><octave>5</octave></pitch><duration>6</duration><type>eighth</type>
        <beam number="1">end</beam></note>
    </measure>

    <!-- Phrase 5: Theme A return (m53–m60) -->
    <measure number="53">
      <harmony><root><root-step>D</root-step><root-alter>-1</root-alter></root><kind>major</kind></harmony>
      <note><pitch><step>F</step><octave>5</octave></pitch><duration>36</duration><type>half</type><dot/></note>
    </measure>
    <measure number="54">
      <harmony><root><root-step>D</root-step><root-alter>-1</root-alter></root><kind>major</kind></harmony>
      <note><pitch><step>F</step><octave>5</octave></pitch><duration>18</duration><type>quarter</type><dot/></note>
      <note><pitch><step>E</step><alter>-1</alter><octave>5</octave></pitch><duration>6</duration><type>eighth</type></note>
      <note><pitch><step>D</step><alter>-1</alter><octave>5</octave></pitch><duration>12</duration><type>quarter</type></note>
    </measure>
    <measure number="55">
      <harmony><root><root-step>G</root-step><root-alter>-1</root-alter></root><kind>major</kind></harmony>
      <note><pitch><step>G</step><alter>-1</alter><octave>4</octave></pitch><duration>12</duration><type>quarter</type></note>
      <note><pitch><step>A</step><alter>-1</alter><octave>4</octave></pitch><duration>12</duration><type>quarter</type></note>
      <note><pitch><step>B</step><alter>-1</alter><octave>4</octave></pitch><duration>12</duration><type>quarter</type></note>
    </measure>
    <measure number="56">
      <harmony><root><root-step>A</root-step><root-alter>-1</root-alter></root><kind>dominant</kind></harmony>
      <note><pitch><step>C</step><octave>5</octave></pitch><duration>18</duration><type>quarter</type><dot/></note>
      <note><pitch><step>B</step><alter>-1</alter><octave>4</octave></pitch><duration>6</duration><type>eighth</type></note>
      <note><pitch><step>A</step><alter>-1</alter><octave>4</octave></pitch><duration>12</duration><type>quarter</type></note>
    </measure>
    <measure number="57">
      <harmony><root><root-step>D</root-step><root-alter>-1</root-alter></root><kind>major</kind></harmony>
      <note><pitch><step>D</step><alter>-1</alter><octave>5</octave></pitch><duration>12</duration><type>quarter</type></note>
      <note><pitch><step>E</step><alter>-1</alter><octave>5</octave></pitch><duration>12</duration><type>quarter</type></note>
      <note><pitch><step>F</step><octave>5</octave></pitch><duration>12</duration><type>quarter</type></note>
    </measure>
    <measure number="58">
      <harmony><root><root-step>B</root-step><root-alter>-1</root-alter></root><kind>minor</kind></harmony>
      <note><pitch><step>F</step><octave>5</octave></pitch><duration>18</duration><type>quarter</type><dot/></note>
      <note><pitch><step>E</step><alter>-1</alter><octave>5</octave></pitch><duration>6</duration><type>eighth</type></note>
      <note><pitch><step>D</step><alter>-1</alter><octave>5</octave></pitch><duration>12</duration><type>quarter</type></note>
    </measure>
    <measure number="59">
      <harmony><root><root-step>A</root-step><root-alter>-1</root-alter></root><kind>dominant</kind></harmony>
      <note><pitch><step>C</step><octave>5</octave></pitch><duration>12</duration><type>quarter</type></note>
      <note><pitch><step>B</step><alter>-1</alter><octave>4</octave></pitch><duration>12</duration><type>quarter</type></note>
      <note><pitch><step>A</step><alter>-1</alter><octave>4</octave></pitch><duration>12</duration><type>quarter</type></note>
    </measure>
    <measure number="60">
      <harmony><root><root-step>D</root-step><root-alter>-1</root-alter></root><kind>major</kind></harmony>
      <note><pitch><step>D</step><alter>-1</alter><octave>5</octave></pitch><duration>36</duration><type>half</type><dot/></note>
    </measure>

    <!-- Phrase 6: Coda — building to climax (m61–m68) -->
    <measure number="61">
      <direction placement="below">
        <direction-type><dynamics><f/></dynamics></direction-type>
      </direction>
      <harmony><root><root-step>D</root-step><root-alter>-1</root-alter></root><kind>major</kind></harmony>
      <note><pitch><step>D</step><alter>-1</alter><octave>5</octave></pitch><duration>6</duration><type>eighth</type>
        <beam number="1">begin</beam></note>
      <note><pitch><step>E</step><alter>-1</alter><octave>5</octave></pitch><duration>6</duration><type>eighth</type>
        <beam number="1">end</beam></note>
      <note><pitch><step>F</step><octave>5</octave></pitch><duration>6</duration><type>eighth</type>
        <beam number="1">begin</beam></note>
      <note><pitch><step>G</step><alter>-1</alter><octave>5</octave></pitch><duration>6</duration><type>eighth</type>
        <beam number="1">end</beam></note>
      <note><pitch><step>A</step><alter>-1</alter><octave>5</octave></pitch><duration>6</duration><type>eighth</type>
        <beam number="1">begin</beam></note>
      <note><pitch><step>B</step><alter>-1</alter><octave>5</octave></pitch><duration>6</duration><type>eighth</type>
        <beam number="1">end</beam></note>
    </measure>
    <measure number="62">
      <harmony><root><root-step>A</root-step><root-alter>-1</root-alter></root><kind>dominant</kind></harmony>
      <note><pitch><step>C</step><octave>6</octave></pitch><duration>12</duration><type>quarter</type></note>
      <note><pitch><step>B</step><alter>-1</alter><octave>5</octave></pitch><duration>12</duration><type>quarter</type></note>
      <note><pitch><step>A</step><alter>-1</alter><octave>5</octave></pitch><duration>12</duration><type>quarter</type></note>
    </measure>
    <measure number="63">
      <harmony><root><root-step>D</root-step><root-alter>-1</root-alter></root><kind>major</kind></harmony>
      <note><pitch><step>A</step><alter>-1</alter><octave>5</octave></pitch><duration>6</duration><type>eighth</type>
        <beam number="1">begin</beam></note>
      <note><pitch><step>G</step><alter>-1</alter><octave>5</octave></pitch><duration>6</duration><type>eighth</type>
        <beam number="1">end</beam></note>
      <note><pitch><step>F</step><octave>5</octave></pitch><duration>6</duration><type>eighth</type>
        <beam number="1">begin</beam></note>
      <note><pitch><step>E</step><alter>-1</alter><octave>5</octave></pitch><duration>6</duration><type>eighth</type>
        <beam number="1">end</beam></note>
      <note><pitch><step>D</step><alter>-1</alter><octave>5</octave></pitch><duration>6</duration><type>eighth</type>
        <beam number="1">begin</beam></note>
      <note><pitch><step>C</step><octave>5</octave></pitch><duration>6</duration><type>eighth</type>
        <beam number="1">end</beam></note>
    </measure>
    <measure number="64">
      <harmony><root><root-step>G</root-step><root-alter>-1</root-alter></root><kind>major</kind></harmony>
      <note><pitch><step>B</step><alter>-1</alter><octave>4</octave></pitch><duration>12</duration><type>quarter</type></note>
      <note><pitch><step>D</step><alter>-1</alter><octave>5</octave></pitch><duration>12</duration><type>quarter</type></note>
      <note><pitch><step>G</step><alter>-1</alter><octave>5</octave></pitch><duration>12</duration><type>quarter</type></note>
    </measure>
    <measure number="65">
      <harmony><root><root-step>A</root-step><root-alter>-1</root-alter></root><kind>dominant</kind></harmony>
      <note><pitch><step>A</step><alter>-1</alter><octave>5</octave></pitch><duration>12</duration><type>quarter</type></note>
      <note><rest/><duration>12</duration><type>quarter</type></note>
      <note><pitch><step>A</step><alter>-1</alter><octave>4</octave></pitch><duration>12</duration><type>quarter</type></note>
    </measure>
    <measure number="66">
      <direction placement="below">
        <direction-type><dynamics><ff/></dynamics></direction-type>
      </direction>
      <harmony><root><root-step>D</root-step><root-alter>-1</root-alter></root><kind>major</kind></harmony>
      <note><pitch><step>D</step><alter>-1</alter><octave>5</octave></pitch><duration>6</duration><type>eighth</type>
        <beam number="1">begin</beam></note>
      <note><pitch><step>F</step><octave>5</octave></pitch><duration>6</duration><type>eighth</type>
        <beam number="1">end</beam></note>
      <note><pitch><step>A</step><alter>-1</alter><octave>5</octave></pitch><duration>6</duration><type>eighth</type>
        <beam number="1">begin</beam></note>
      <note><pitch><step>D</step><alter>-1</alter><octave>6</octave></pitch><duration>6</duration><type>eighth</type>
        <beam number="1">end</beam></note>
      <note><pitch><step>A</step><alter>-1</alter><octave>5</octave></pitch><duration>6</duration><type>eighth</type>
        <beam number="1">begin</beam></note>
      <note><pitch><step>F</step><octave>5</octave></pitch><duration>6</duration><type>eighth</type>
        <beam number="1">end</beam></note>
    </measure>
    <measure number="67">
      <harmony><root><root-step>A</root-step><root-alter>-1</root-alter></root><kind>dominant</kind></harmony>
      <note><pitch><step>E</step><alter>-1</alter><octave>5</octave></pitch><duration>12</duration><type>quarter</type></note>
      <note><pitch><step>D</step><alter>-1</alter><octave>5</octave></pitch><duration>12</duration><type>quarter</type></note>
      <note><pitch><step>C</step><octave>5</octave></pitch><duration>12</duration><type>quarter</type></note>
    </measure>
    <measure number="68">
      <harmony><root><root-step>D</root-step><root-alter>-1</root-alter></root><kind>major</kind></harmony>
      <note><pitch><step>D</step><alter>-1</alter><octave>5</octave></pitch><duration>36</duration><type>half</type><dot/>
        <notations><fermata/></notations>
      </note>
    </measure>

    <!-- ════════════════════════════════════════════════════════════════
         SECTION E: Return to 4/4, C major, D.S. al Fine
         ════════════════════════════════════════════════════════════════ -->

    <!-- Measure 65: Whole note, then D.S. al Fine -->
    <measure number="69">
      <attributes>
        <key><fifths>0</fifths></key>
        <time><beats>4</beats><beat-type>4</beat-type></time>
      </attributes>
      <direction placement="above">
        <direction-type>
          <metronome><beat-unit>quarter</beat-unit><per-minute>120</per-minute></metronome>
        </direction-type>
        <sound tempo="120"/>
      </direction>
      <harmony><root><root-step>C</root-step></root><kind>major</kind></harmony>
      <note>
        <pitch><step>C</step><octave>4</octave></pitch>
        <duration>48</duration><type>whole</type>
      </note>
      <direction>
        <direction-type><words>D.S. al Fine</words></direction-type>
        <sound dalsegno="segno"/>
      </direction>
    </measure>

  </part>
</score-partwise>
